<svg xmlns="http://www.w3.org/2000/svg" viewBox="0 0 100 100" fill-rule="evenodd"><rect x="0" y="0" width="100" height="100" fill="#e2e2e2" rx="50" ry="50"></rect><g class="t-group-origins" style="transform-origin:center;transform:scale(0.58);"><path d="M49.996 8.726C27.242 8.726 8.73 27.24 8.73 49.997c0 22.761 18.512 41.277 41.266 41.277 22.759 0 41.274-18.517 41.274-41.277.001-22.757-18.515-41.271-41.274-41.271zm0 79.548c-21.1 0-38.266-17.171-38.266-38.277 0-21.103 17.166-38.271 38.266-38.271 21.104 0 38.274 17.168 38.274 38.271.001 21.106-17.169 38.277-38.274 38.277z" stroke-width="0" stroke="#000000" fill="#000000" stroke-width-old="0"></path><path d="M57.655 28.842h-23.77a1.5 1.5 0 0 0-1.5 1.5v41.604a1.5 1.5 0 0 0 1.5 1.5H45.77a1.5 1.5 0 0 0 1.5-1.5V57.013h10.385c7.767 0 14.086-6.319 14.086-14.086s-6.319-14.085-14.086-14.085zm0 25.172H45.77a1.5 1.5 0 0 0-1.5 1.5v14.933h-8.885V31.843h22.27c6.113 0 11.086 4.973 11.086 11.086s-4.972 11.085-11.086 11.085z" stroke-width="0" stroke="#000000" fill="#000000" stroke-width-old="0"></path><path d="M57.655 36.733H45.778a1.5 1.5 0 0 0-1.5 1.5v8.057a1.5 1.5 0 0 0 1.5 1.5h11.877a1.5 1.5 0 0 0 1.5-1.5v-8.057a1.5 1.5 0 0 0-1.5-1.5zm-1.5 8.056h-8.877v-5.057h8.877v5.057z" stroke-width="0" stroke="#000000" fill="#000000" stroke-width-old="0"></path></g></svg>
